<?xml version="1.0" encoding="iso-8859-1"?>
<!-- Generator: Adobe Illustrator 19.0.0, SVG Export Plug-In . SVG Version: 6.00 Build 0)  -->
<svg version="1.1" id="Layer_1" xmlns="http://www.w3.org/2000/svg" xmlns:xlink="http://www.w3.org/1999/xlink" x="0px" y="0px"
	 viewBox="0 0 512 512" style="enable-background:new 0 0 512 512;" xml:space="preserve">
<g>
	<g>
		<g>
			<path d="M341.333,0H170.667C74.965,0,0,112.448,0,256s74.965,256,170.667,256h170.667C437.035,512,512,399.552,512,256
				S437.035,0,341.333,0z M87.189,96.021l25.728,25.728C116.949,125.781,122.389,128,128,128c1.387,0,2.795-0.128,4.181-0.427
				l66.283-13.248c-2.475,5.696-4.843,11.499-7.019,17.493c-0.107,0.32-0.256,0.619-0.363,0.939
				c-2.325,6.443-4.395,13.141-6.336,19.947l-70.976,15.851l-42.667-44.629C75.947,113.835,81.365,104.533,87.189,96.021z
				 M54.549,168.341l36.693,38.4c4.075,4.267,9.664,6.592,15.424,6.592c1.536,0,3.115-0.171,4.651-0.512l63.616-14.208
				c-0.853,5.888-1.515,11.883-2.112,17.92c-0.32,3.051-0.683,6.037-0.917,9.131c-0.171,2.325-0.341,4.651-0.469,7.019
				l-79.381,20.821l-45.504-47.595C48.512,192.896,51.179,180.352,54.549,168.341z M42.923,263.829l26.987,28.245
				c4.096,4.267,9.664,6.592,15.424,6.592c1.813,0,3.627-0.235,5.419-0.704l80.597-21.141c0.149,3.179,0.32,6.357,0.555,9.515
				c0.235,3.093,0.597,6.08,0.917,9.131c0.683,6.912,1.515,13.739,2.539,20.437c0.064,0.363,0.085,0.725,0.128,1.067l-87.765,23.232
				l-37.824-15.467C45.803,305.429,43.392,284.971,42.923,263.829z M66.347,377.557l11.84,4.843c2.581,1.067,5.333,1.6,8.085,1.6
				c1.835,0,3.669-0.235,5.461-0.704l92.821-24.597c2.005,7.019,4.139,13.909,6.528,20.544c0.107,0.32,0.256,0.619,0.363,0.939
				c2.624,7.232,5.483,14.251,8.533,21.013L94.464,425.792C83.691,412.181,74.176,395.947,66.347,377.557z M170.667,469.333
				c-12.459,0-24.533-3.264-36.011-9.088l83.52-19.456c1.131-0.277,2.005-0.981,3.072-1.408c1.707,2.517,3.541,4.843,5.333,7.253
				c1.365,1.835,2.667,3.776,4.075,5.547c4.757,5.995,9.685,11.691,14.869,16.896c0.085,0.085,0.149,0.171,0.235,0.256H170.667z
				 M245.525,42.923c-5.184,5.205-10.112,10.901-14.869,16.896c-1.365,1.728-2.624,3.563-3.947,5.355L135.019,83.52l-19.2-19.221
				c16.747-13.675,35.328-21.632,54.848-21.632h75.093C245.675,42.752,245.611,42.837,245.525,42.923z M341.333,426.667
				C285.312,426.667,256,340.821,256,256s29.312-170.667,85.333-170.667c56.021,0,85.333,85.845,85.333,170.667
				S397.355,426.667,341.333,426.667z"/>
			<path d="M341.333,128c-15.04,0-42.667,48.597-42.667,128s27.627,128,42.667,128C356.373,384,384,335.403,384,256
				S356.373,128,341.333,128z"/>
		</g>
	</g>
</g>
<g>
</g>
<g>
</g>
<g>
</g>
<g>
</g>
<g>
</g>
<g>
</g>
<g>
</g>
<g>
</g>
<g>
</g>
<g>
</g>
<g>
</g>
<g>
</g>
<g>
</g>
<g>
</g>
<g>
</g>
</svg>
